<?xml version="1.0" standalone="no"?>
<!DOCTYPE svg PUBLIC "-//W3C//DTD SVG 20010904//EN"
 "http://www.w3.org/TR/2001/REC-SVG-20010904/DTD/svg10.dtd">
<svg version="1.0" xmlns="http://www.w3.org/2000/svg"
 width="1024.000000pt" height="1024.000000pt" viewBox="0 0 1024.000000 1024.000000"
 preserveAspectRatio="xMidYMid meet">

<g transform="translate(0.000000,1024.000000) scale(0.100000,-0.100000)"
fill="#000000" stroke="none">
<path d="M0 5120 l0 -5120 5120 0 5120 0 0 5120 0 5120 -5120 0 -5120 0 0
-5120z m3515 1665 c231 -47 434 -90 451 -95 17 -6 42 -23 57 -38 14 -15 131
-211 260 -437 129 -225 339 -592 467 -815 128 -223 247 -430 265 -460 95 -166
220 -377 229 -387 12 -13 102 149 986 1772 84 154 163 295 177 314 14 18 41
40 60 47 42 18 696 185 701 179 2 -2 -11 -30 -31 -62 -19 -32 -101 -179 -182
-328 -81 -148 -185 -337 -230 -420 -46 -82 -164 -298 -263 -480 -99 -181 -273
-499 -387 -705 -171 -309 -464 -843 -841 -1532 -33 -59 -61 -107 -64 -107 -3
0 -88 145 -189 322 -480 838 -997 1742 -1415 2472 -251 440 -464 810 -473 823
-8 12 -11 22 -6 22 5 0 198 -38 428 -85z"/>
</g>
</svg>
